Exo-LightItalic.ufo
<glyph name="numbersign" format="1">
  <advance width="673"/>
  <unicode hex="0023"/>
  <note>
    GF Latin Plus glyph
  </note>
  <outline>
    <contour>
      <point x="281" y="273" type="line"/>
      <point x="339" y="455" type="line"/>
      <point x="506" y="455" type="line"/>
      <point x="448" y="273" type="line"/>
    </contour>
    <contour>
      <point x="62" y="237" type="line"/>
      <point x="232" y="237" type="line"/>
      <point x="156" y="0" type="line"/>
      <point x="192" y="0" type="line"/>
      <point x="268" y="237" type="line"/>
      <point x="434" y="237" type="line"/>
      <point x="359" y="0" type="line"/>
      <point x="395" y="0" type="line"/>
      <point x="470" y="237" type="line"/>
      <point x="649" y="237" type="line"/>
      <point x="660" y="273" type="line"/>
      <point x="484" y="273" type="line"/>
      <point x="542" y="455" type="line"/>
      <point x="719" y="455" type="line"/>
      <point x="730" y="491" type="line"/>
      <point x="554" y="491" type="line"/>
      <point x="631" y="732" type="line"/>
      <point x="595" y="732" type="line"/>
      <point x="518" y="491" type="line"/>
      <point x="352" y="491" type="line"/>
      <point x="430" y="732" type="line"/>
      <point x="394" y="732" type="line"/>
      <point x="316" y="491" type="line"/>
      <point x="142" y="491" type="line"/>
      <point x="130" y="455" type="line"/>
      <point x="303" y="455" type="line"/>
      <point x="245" y="273" type="line"/>
      <point x="73" y="273" type="line"/>
    </contour>
  </outline>
</glyph>
<glyph name="parenleft" format="1">
  <advance width="335"/>
  <unicode hex="0028"/>
  <note>
    GF Latin Plus glyph
  </note>
  <outline>
    <contour>
      <point x="129" y="179" type="curve" smooth="yes"/>
      <point x="129" y="34"/>
      <point x="158" y="-97"/>
      <point x="221" y="-210" type="curve"/>
      <point x="278" y="-210" type="line"/>
      <point x="216" y="-86"/>
      <point x="188" y="47"/>
      <point x="188" y="187" type="curve" smooth="yes"/>
      <point x="188" y="415"/>
      <point x="282" y="672"/>
      <point x="446" y="860" type="curve"/>
      <point x="390" y="860" type="line"/>
      <point x="224" y="677"/>
      <point x="129" y="413"/>
    </contour>
  </outline>
</glyph>
<glyph name="at" format="1">
  <advance width="909"/>
  <unicode hex="0040"/>
  <note>
    GF Latin Plus glyph
  </note>
  <outline>
    <contour>
      <point x="514" y="497" type="curve" smooth="yes"/>
      <point x="564" y="497"/>
      <point x="606" y="490"/>
      <point x="663" y="461" type="curve"/>
      <point x="609" y="99" type="line"/>
      <point x="546" y="50"/>
      <point x="474" y="42"/>
      <point x="416" y="42" type="curve" smooth="yes"/>
      <point x="354" y="42"/>
      <point x="297" y="72"/>
      <point x="297" y="185" type="curve" smooth="yes"/>
      <point x="297" y="380"/>
      <point x="395" y="497"/>
    </contour>
    <contour>
      <point x="61" y="19" type="line" smooth="yes"/>
      <point x="59" y="5"/>
      <point x="58" y="-9"/>
      <point x="58" y="-22" type="curve" smooth="yes"/>
      <point x="58" y="-113"/>
      <point x="114" y="-183"/>
      <point x="223" y="-183" type="curve" smooth="yes"/>
      <point x="319" y="-183" type="line" smooth="yes"/>
      <point x="445" y="-183"/>
      <point x="559" y="-177"/>
      <point x="609" y="-170" type="curve"/>
      <point x="614" y="-137" type="line"/>
      <point x="230" y="-137" type="line" smooth="yes"/>
      <point x="155" y="-137"/>
      <point x="106" y="-94"/>
      <point x="106" y="-19" type="curve" smooth="yes"/>
      <point x="106" y="-8"/>
      <point x="107" y="3"/>
      <point x="109" y="15" type="curve" smooth="yes"/>
      <point x="189" y="513" type="line" smooth="yes"/>
      <point x="201" y="591"/>
      <point x="242" y="661"/>
      <point x="357" y="661" type="curve" smooth="yes"/>
      <point x="741" y="661" type="line" smooth="yes"/>
      <point x="809" y="661"/>
      <point x="858" y="636"/>
      <point x="858" y="556" type="curve" smooth="yes"/>
      <point x="858" y="543"/>
      <point x="856" y="529"/>
      <point x="854" y="513" type="curve" smooth="yes"/>
      <point x="804" y="177" type="line" smooth="yes"/>
      <point x="786" y="54"/>
      <point x="697" y="43"/>
      <point x="650" y="43" type="curve"/>
      <point x="714" y="479" type="line"/>
      <point x="668" y="522"/>
      <point x="595" y="543"/>
      <point x="515" y="543" type="curve" smooth="yes"/>
      <point x="371" y="543"/>
      <point x="249" y="410"/>
      <point x="249" y="179" type="curve" smooth="yes"/>
      <point x="249" y="38"/>
      <point x="320" y="-6"/>
      <point x="406" y="-6" type="curve" smooth="yes"/>
      <point x="472" y="-6"/>
      <point x="573" y="24"/>
      <point x="605" y="61" type="curve"/>
      <point x="611" y="0" type="line"/>
      <point x="657" y="0" type="line" smooth="yes"/>
      <point x="796" y="0"/>
      <point x="844" y="117"/>
      <point x="852" y="173" type="curve" smooth="yes"/>
      <point x="902" y="509" type="line" smooth="yes"/>
      <point x="905" y="526"/>
      <point x="906" y="544"/>
      <point x="906" y="559" type="curve" smooth="yes"/>
      <point x="906" y="651"/>
      <point x="855" y="707"/>
      <point x="751" y="707" type="curve" smooth="yes"/>
      <point x="364" y="707" type="line" smooth="yes"/>
      <point x="222" y="707"/>
      <point x="159" y="632"/>
      <point x="141" y="521" type="curve" smooth="yes"/>
    </contour>
  </outline>
</glyph>
<glyph name="C" format="1">
  <advance width="590"/>
  <unicode hex="0043"/>
  <note>
    GF Latin Plus glyph
  </note>
  <outline>
    <contour>
      <point x="124" y="381" type="curve" smooth="yes"/>
      <point x="116" y="332"/>
      <point x="108" y="270"/>
      <point x="108" y="220" type="curve" smooth="yes"/>
      <point x="108" y="73"/>
      <point x="168" y="-6"/>
      <point x="311" y="-6" type="curve" smooth="yes"/>
      <point x="382" y="-6"/>
      <point x="462" y="1"/>
      <point x="527" y="16" type="curve"/>
      <point x="534" y="60" type="line"/>
      <point x="479" y="51"/>
      <point x="426" y="46"/>
      <point x="326" y="46" type="curve" smooth="yes"/>
      <point x="210" y="46"/>
      <point x="167" y="97"/>
      <point x="167" y="220" type="curve" smooth="yes"/>
      <point x="167" y="262"/>
      <point x="173" y="319"/>
      <point x="181" y="366" type="curve" smooth="yes"/>
      <point x="220" y="593"/>
      <point x="284" y="688"/>
      <point x="424" y="688" type="curve" smooth="yes"/>
      <point x="502" y="688"/>
      <point x="566" y="680"/>
      <point x="631" y="669" type="curve"/>
      <point x="639" y="713" type="line"/>
      <point x="587" y="725"/>
      <point x="518" y="740"/>
      <point x="418" y="740" type="curve" smooth="yes"/>
      <point x="242" y="740"/>
      <point x="160" y="611"/>
    </contour>
    <contour>
      <point x="435" y="810" type="move" name="top"/>
    </contour>
    <contour>
      <point x="299" y="-150" type="move" name="bottom"/>
    </contour>
  </outline>
</glyph>
<glyph name="E" format="1">
  <advance width="573"/>
  <unicode hex="0045"/>
  <note>
    GF Latin Plus glyph
  </note>
  <outline>
    <contour>
      <point x="96" y="137" type="line" smooth="yes"/>
      <point x="77" y="16"/>
      <point x="155" y="-7"/>
      <point x="223" y="-6" type="curve" smooth="yes"/>
      <point x="245" y="-6"/>
      <point x="496" y="1"/>
      <point x="514" y="2" type="curve"/>
      <point x="522" y="48" type="line"/>
      <point x="242" y="48" type="line" smooth="yes"/>
      <point x="183" y="48"/>
      <point x="144" y="64"/>
      <point x="156" y="144" type="curve" smooth="yes"/>
      <point x="186" y="338" type="line"/>
      <point x="524" y="342" type="line"/>
      <point x="531" y="385" type="line"/>
      <point x="195" y="392" type="line"/>
      <point x="225" y="583" type="line" smooth="yes"/>
      <point x="237" y="655"/>
      <point x="275" y="681"/>
      <point x="333" y="681" type="curve" smooth="yes"/>
      <point x="620" y="681" type="line"/>
      <point x="628" y="726" type="line"/>
      <point x="607" y="728"/>
      <point x="350" y="734"/>
      <point x="330" y="734" type="curve" smooth="yes"/>
      <point x="257" y="735"/>
      <point x="187" y="703"/>
      <point x="169" y="597" type="curve" smooth="yes"/>
    </contour>
    <contour>
      <point x="429" y="810" type="move" name="top"/>
    </contour>
    <contour>
      <point x="504" y="2" type="move" name="ogonek"/>
    </contour>
    <contour>
      <point x="277" y="-150" type="move" name="bottom"/>
    </contour>
  </outline>
</glyph>
<glyph name="H" format="1">
  <advance width="658"/>
  <unicode hex="0048"/>
  <note>
    GF Latin Plus glyph
  </note>
  <outline>
    <contour>
      <point x="75" y="0" type="line"/>
      <point x="133" y="0" type="line"/>
      <point x="185" y="331" type="line"/>
      <point x="580" y="331" type="line"/>
      <point x="527" y="0" type="line"/>
      <point x="585" y="0" type="line"/>
      <point x="702" y="734" type="line"/>
      <point x="644" y="734" type="line"/>
      <point x="588" y="383" type="line"/>
      <point x="194" y="383" type="line"/>
      <point x="249" y="734" type="line"/>
      <point x="191" y="734" type="line"/>
    </contour>
    <contour>
      <point x="457" y="810" type="move" name="top"/>
    </contour>
    <contour>
      <point x="305" y="-150" type="move" name="bottom"/>
    </contour>
  </outline>
</glyph>
<glyph name="K" format="1">
  <advance width="583"/>
  <unicode hex="004B"/>
  <note>
    GF Latin Plus glyph
  </note>
  <outline>
    <contour>
      <point x="75" y="0" type="line"/>
      <point x="133" y="0" type="line"/>
      <point x="187" y="342" type="line"/>
      <point x="331" y="342" type="line"/>
      <point x="495" y="0" type="line"/>
      <point x="555" y="0" type="line"/>
      <point x="379" y="367" type="line"/>
      <point x="659" y="734" type="line"/>
      <point x="597" y="734" type="line"/>
      <point x="335" y="394" type="line"/>
      <point x="196" y="394" type="line"/>
      <point x="249" y="734" type="line"/>
      <point x="191" y="734" type="line"/>
    </contour>
    <contour>
      <point x="411" y="810" type="move" name="top"/>
    </contour>
    <contour>
      <point x="259" y="-150" type="move" name="bottom"/>
    </contour>
  </outline>
</glyph>
<glyph name="L" format="1">
  <advance width="521"/>
  <unicode hex="004C"/>
  <note>
    GF Latin Plus glyph
  </note>
  <outline>
    <contour>
      <point x="97" y="141" type="line" smooth="yes"/>
      <point x="95" y="128"/>
      <point x="94" y="116"/>
      <point x="94" y="103" type="curve" smooth="yes"/>
      <point x="94" y="24"/>
      <point x="143" y="0"/>
      <point x="217" y="0" type="curve" smooth="yes"/>
      <point x="497" y="0" type="line"/>
      <point x="505" y="52" type="line"/>
      <point x="233" y="52" type="line" smooth="yes"/>
      <point x="189" y="52"/>
      <point x="154" y="63"/>
      <point x="154" y="115" type="curve" smooth="yes"/>
      <point x="154" y="127"/>
      <point x="154" y="135"/>
      <point x="156" y="146" type="curve" smooth="yes"/>
      <point x="249" y="734" type="line"/>
      <point x="191" y="734" type="line"/>
    </contour>
    <contour>
      <point x="239" y="810" type="move" name="top"/>
    </contour>
    <contour>
      <point x="308" y="590" type="move" name="altcaron"/>
    </contour>
    <contour>
      <point x="406" y="400" type="move" name="dot"/>
    </contour>
    <contour>
      <point x="255" y="-150" type="move" name="bottom"/>
    </contour>
  </outline>
</glyph>
<glyph name="T" format="1">
  <advance width="604"/>
  <unicode hex="0054"/>
  <note>
    GF Latin Plus glyph
  </note>
  <outline>
    <contour>
      <point x="136" y="682" type="line"/>
      <point x="376" y="682" type="line"/>
      <point x="268" y="0" type="line"/>
      <point x="326" y="0" type="line"/>
      <point x="434" y="682" type="line"/>
      <point x="674" y="682" type="line"/>
      <point x="682" y="734" type="line"/>
      <point x="144" y="734" type="line"/>
    </contour>
    <contour>
      <point x="421" y="810" type="move" name="top"/>
    </contour>
    <contour>
      <point x="269" y="-150" type="move" name="bottom"/>
    </contour>
  </outline>
</glyph>
<glyph name="o" format="1">
  <advance width="564"/>
  <unicode hex="006F"/>
  <note>
    GF Latin Plus glyph
  </note>
  <outline>
    <contour>
      <point x="154" y="259" type="curve" smooth="yes"/>
      <point x="184" y="449"/>
      <point x="235" y="491"/>
      <point x="358" y="491" type="curve" smooth="yes"/>
      <point x="461" y="491"/>
      <point x="500" y="453"/>
      <point x="500" y="355" type="curve" smooth="yes"/>
      <point x="500" y="328"/>
      <point x="497" y="297"/>
      <point x="491" y="259" type="curve" smooth="yes"/>
      <point x="463" y="77"/>
      <point x="405" y="43"/>
      <point x="289" y="43" type="curve" smooth="yes"/>
      <point x="205" y="43"/>
      <point x="146" y="66"/>
      <point x="146" y="175" type="curve" smooth="yes"/>
      <point x="146" y="199"/>
      <point x="149" y="226"/>
    </contour>
    <contour>
      <point x="97" y="270" type="curve" smooth="yes"/>
      <point x="92" y="236"/>
      <point x="89" y="204"/>
      <point x="89" y="173" type="curve" smooth="yes"/>
      <point x="89" y="41"/>
      <point x="165" y="-6"/>
      <point x="281" y="-6" type="curve" smooth="yes"/>
      <point x="445" y="-6"/>
      <point x="518" y="52"/>
      <point x="549" y="248" type="curve" smooth="yes"/>
      <point x="555" y="287"/>
      <point x="559" y="322"/>
      <point x="559" y="354" type="curve" smooth="yes"/>
      <point x="559" y="476"/>
      <point x="509" y="539"/>
      <point x="367" y="539" type="curve" smooth="yes"/>
      <point x="204" y="539"/>
      <point x="131" y="483"/>
    </contour>
    <contour>
      <point x="377" y="650" type="move" name="top"/>
    </contour>
    <contour>
      <point x="351" y="0" type="move" name="ogonek"/>
    </contour>
    <contour>
      <point x="251" y="-150" type="move" name="bottom"/>
    </contour>
  </outline>
</glyph>
<glyph name="p" format="1">
  <advance width="563"/>
  <unicode hex="0070"/>
  <note>
    GF Latin Plus glyph
  </note>
  <outline>
    <contour>
      <point x="141" y="72" type="curve"/>
      <point x="207" y="488" type="line"/>
      <point x="378" y="490" type="line" smooth="yes"/>
      <point x="464" y="491"/>
      <point x="502" y="442"/>
      <point x="502" y="351" type="curve" smooth="yes"/>
      <point x="502" y="323"/>
      <point x="497" y="292"/>
      <point x="493" y="269" type="curve" smooth="yes"/>
      <point x="470" y="123"/>
      <point x="421" y="44"/>
      <point x="297" y="44" type="curve" smooth="yes"/>
      <point x="234" y="44"/>
      <point x="205" y="51"/>
    </contour>
    <contour>
      <point x="35" y="-237" type="line"/>
      <point x="93" y="-237" type="line"/>
      <point x="135" y="28" type="line"/>
      <point x="187" y="3"/>
      <point x="237" y="-6"/>
      <point x="301" y="-6" type="curve" smooth="yes"/>
      <point x="453" y="-6"/>
      <point x="524" y="95"/>
      <point x="550" y="256" type="curve" smooth="yes"/>
      <point x="555" y="287"/>
      <point x="560" y="324"/>
      <point x="560" y="358" type="curve" smooth="yes"/>
      <point x="560" y="481"/>
      <point x="501" y="539"/>
      <point x="390" y="539" type="curve" smooth="yes"/>
      <point x="290" y="539"/>
      <point x="214" y="533"/>
      <point x="156" y="525" type="curve"/>
    </contour>
  </outline>
</glyph>
<glyph name="u" format="1">
  <advance width="571"/>
  <unicode hex="0075"/>
  <note>
    GF Latin Plus glyph
  </note>
  <outline>
    <contour>
      <point x="99" y="172" type="line" smooth="yes"/>
      <point x="97" y="157"/>
      <point x="95" y="139"/>
      <point x="95" y="117" type="curve" smooth="yes"/>
      <point x="95" y="41"/>
      <point x="141" y="-6"/>
      <point x="234" y="-6" type="curve" smooth="yes"/>
      <point x="325" y="-6"/>
      <point x="387" y="22"/>
      <point x="450" y="60" type="curve"/>
      <point x="451" y="0" type="line"/>
      <point x="498" y="0" type="line"/>
      <point x="583" y="533" type="line"/>
      <point x="525" y="533" type="line"/>
      <point x="456" y="103" type="line"/>
      <point x="388" y="67"/>
      <point x="335" y="46"/>
      <point x="259" y="46" type="curve" smooth="yes"/>
      <point x="186" y="46"/>
      <point x="155" y="79"/>
      <point x="155" y="137" type="curve" smooth="yes"/>
      <point x="155" y="151"/>
      <point x="156" y="163"/>
      <point x="158" y="173" type="curve" smooth="yes"/>
      <point x="215" y="533" type="line"/>
      <point x="157" y="533" type="line"/>
    </contour>
    <contour>
      <point x="387" y="650" type="move" name="top"/>
    </contour>
    <contour>
      <point x="488" y="0" type="move" name="ogonek"/>
    </contour>
    <contour>
      <point x="261" y="-150" type="move" name="bottom"/>
    </contour>
  </outline>
</glyph>
<glyph name="onesuperior" format="1">
  <advance width="420"/>
  <unicode hex="00B9"/>
  <outline>
    <contour>
      <point x="131" y="398" type="line"/>
      <point x="124" y="355" type="line"/>
      <point x="422" y="355" type="line"/>
      <point x="428" y="398" type="line"/>
    </contour>
    <contour>
      <point x="197" y="770" type="line"/>
      <point x="319" y="802" type="line"/>
      <point x="249" y="355" type="line"/>
      <point x="297" y="355" type="line"/>
      <point x="375" y="847" type="line"/>
      <point x="331" y="847" type="line"/>
      <point x="202" y="802" type="line"/>
    </contour>
  </outline>
</glyph>
<glyph name="Ohorn" format="1">
  <advance width="684"/>
  <unicode hex="01A0"/>
  <note>
    GF Latin Plus glyph
  </note>
  <outline>
    <contour>
      <point x="487" y="701" type="line"/>
      <point x="621" y="701" type="line" smooth="yes"/>
      <point x="681" y="701"/>
      <point x="744" y="735"/>
      <point x="762" y="849" type="curve"/>
      <point x="718" y="849" type="line"/>
      <point x="704" y="763"/>
      <point x="666" y="734"/>
      <point x="619" y="734" type="curve" smooth="yes"/>
      <point x="492" y="734" type="line"/>
    </contour>
    <component base="O"/>
    <contour>
      <point x="465" y="810" type="move" name="top"/>
    </contour>
    <contour>
      <point x="311" y="-150" type="move" name="bottom"/>
    </contour>
  </outline>
</glyph>
<glyph name="dotaccent" format="1">
  <advance width="175"/>
  <unicode hex="02D9"/>
  <note>
    GF Latin Plus glyph
  </note>
  <outline>
    <contour>
      <point x="161" y="672" type="line" smooth="yes"/>
      <point x="161" y="671"/>
      <point x="161" y="671"/>
      <point x="161" y="670" type="curve" smooth="yes"/>
      <point x="161" y="663"/>
      <point x="166" y="658"/>
      <point x="173" y="658" type="curve" smooth="yes"/>
      <point x="200" y="658" type="line" smooth="yes"/>
      <point x="209" y="658"/>
      <point x="216" y="663"/>
      <point x="217" y="672" type="curve" smooth="yes"/>
      <point x="228" y="744" type="line" smooth="yes"/>
      <point x="228" y="745"/>
      <point x="228" y="747"/>
      <point x="228" y="748" type="curve" smooth="yes"/>
      <point x="228" y="754"/>
      <point x="225" y="759"/>
      <point x="216" y="759" type="curve" smooth="yes"/>
      <point x="190" y="759" type="line" smooth="yes"/>
      <point x="180" y="759"/>
      <point x="174" y="754"/>
      <point x="173" y="744" type="curve" smooth="yes"/>
    </contour>
  </outline>
</glyph>
<glyph name="zerosuperior" format="1">
  <advance width="420"/>
  <unicode hex="2070"/>
  <outline>
    <contour>
      <point x="170" y="475" type="curve" smooth="yes"/>
      <point x="209" y="726" type="line" smooth="yes"/>
      <point x="216" y="775"/>
      <point x="253" y="803"/>
      <point x="303" y="803" type="curve" smooth="yes"/>
      <point x="373" y="803" type="line" smooth="yes"/>
      <point x="425" y="803"/>
      <point x="441" y="784"/>
      <point x="442" y="744" type="curve" smooth="yes"/>
      <point x="442" y="739"/>
      <point x="441" y="733"/>
      <point x="441" y="726" type="curve" smooth="yes"/>
      <point x="401" y="474" type="line" smooth="yes"/>
      <point x="393" y="426"/>
      <point x="365" y="397"/>
      <point x="308" y="397" type="curve" smooth="yes"/>
      <point x="239" y="397" type="line" smooth="yes"/>
      <point x="190" y="397"/>
      <point x="168" y="417"/>
      <point x="168" y="457" type="curve" smooth="yes"/>
      <point x="168" y="462"/>
      <point x="169" y="468"/>
    </contour>
    <contour>
      <point x="120" y="469" type="line" smooth="yes"/>
      <point x="118" y="459"/>
      <point x="118" y="451"/>
      <point x="118" y="443" type="curve" smooth="yes"/>
      <point x="118" y="383"/>
      <point x="162" y="354"/>
      <point x="224" y="354" type="curve" smooth="yes"/>
      <point x="311" y="354" type="line" smooth="yes"/>
      <point x="383" y="354"/>
      <point x="435" y="389"/>
      <point x="448" y="469" type="curve" smooth="yes"/>
      <point x="489" y="730" type="line" smooth="yes"/>
      <point x="491" y="739"/>
      <point x="492" y="748"/>
      <point x="492" y="757" type="curve" smooth="yes"/>
      <point x="492" y="808"/>
      <point x="461" y="846"/>
      <point x="390" y="846" type="curve" smooth="yes"/>
      <point x="302" y="846" type="line" smooth="yes"/>
      <point x="231" y="846"/>
      <point x="173" y="806"/>
      <point x="162" y="730" type="curve" smooth="yes"/>
    </contour>
  </outline>
</glyph>
<glyph name="franc" format="1">
  <advance width="609"/>
  <unicode hex="20A3"/>
  <note>
    GF Latin Plus glyph
  </note>
  <outline>
    <contour>
      <point x="151" y="0" type="line"/>
      <point x="209" y="0" type="line"/>
      <point x="267" y="363" type="line"/>
      <point x="544" y="368" type="line"/>
      <point x="552" y="411" type="line"/>
      <point x="275" y="416" type="line"/>
      <point x="302" y="586" type="line" smooth="yes"/>
      <point x="312" y="650"/>
      <point x="351" y="681"/>
      <point x="408" y="681" type="curve" smooth="yes"/>
      <point x="636" y="681" type="line"/>
      <point x="643" y="726" type="line"/>
      <point x="626" y="729"/>
      <point x="415" y="734"/>
      <point x="406" y="734" type="curve" smooth="yes"/>
      <point x="335" y="736"/>
      <point x="262" y="700"/>
      <point x="245" y="595" type="curve" smooth="yes"/>
    </contour>
    <contour>
      <point x="87" y="151" type="line"/>
      <point x="174" y="147" type="line"/>
      <point x="232" y="147" type="line"/>
      <point x="510" y="151" type="line"/>
      <point x="516" y="191" type="line"/>
      <point x="240" y="195" type="line"/>
      <point x="182" y="195" type="line"/>
      <point x="93" y="191" type="line"/>
    </contour>
  </outline>
</glyph>
<glyph name="trademark" format="1">
  <advance width="706"/>
  <unicode hex="2122"/>
  <note>
    GF Latin Plus glyph
  </note>
  <outline>
    <contour>
      <point x="383" y="383" type="line"/>
      <point x="417" y="383" type="line"/>
      <point x="485" y="671" type="line"/>
      <point x="558" y="383" type="line"/>
      <point x="582" y="383" type="line"/>
      <point x="736" y="671" type="line"/>
      <point x="717" y="383" type="line"/>
      <point x="750" y="383" type="line"/>
      <point x="770" y="732" type="line"/>
      <point x="736" y="732" type="line"/>
      <point x="578" y="435" type="line"/>
      <point x="502" y="732" type="line"/>
      <point x="469" y="732" type="line"/>
    </contour>
    <contour>
      <point x="202" y="383" type="line"/>
      <point x="236" y="383" type="line"/>
      <point x="286" y="702" type="line"/>
      <point x="402" y="702" type="line"/>
      <point x="407" y="732" type="line"/>
      <point x="140" y="732" type="line"/>
      <point x="135" y="702" type="line"/>
      <point x="252" y="702" type="line"/>
    </contour>
  </outline>
</glyph>
<glyph name="lozenge" format="1">
  <advance width="536"/>
  <unicode hex="25CA"/>
  <outline>
    <contour>
      <point x="133" y="369" type="line"/>
      <point x="271" y="69" type="line"/>
      <point x="504" y="376" type="line"/>
      <point x="370" y="666" type="line"/>
    </contour>
    <contour>
      <point x="77" y="373" type="line"/>
      <point x="361" y="732" type="line"/>
      <point x="395" y="732" type="line"/>
      <point x="559" y="373" type="line"/>
      <point x="279" y="0" type="line"/>
      <point x="245" y="0" type="line"/>
    </contour>
  </outline>
</glyph>
<glyph name="D.smcp" format="1">
  <advance width="566"/>
  <note>
    GF Latin Plus glyph
  </note>
  <outline>
    <contour>
      <point x="135" y="48" type="line"/>
      <point x="208" y="512" type="line"/>
      <point x="359" y="512" type="line" smooth="yes"/>
      <point x="467" y="512"/>
      <point x="499" y="461"/>
      <point x="500" y="365" type="curve" smooth="yes"/>
      <point x="500" y="342"/>
      <point x="497" y="313"/>
      <point x="492" y="276" type="curve" smooth="yes"/>
      <point x="472" y="149"/>
      <point x="417" y="48"/>
      <point x="289" y="48" type="curve" smooth="yes"/>
    </contour>
    <contour>
      <point x="71" y="0" type="line"/>
      <point x="286" y="0" type="line" smooth="yes"/>
      <point x="446" y="0"/>
      <point x="523" y="109"/>
      <point x="548" y="268" type="curve" smooth="yes"/>
      <point x="553" y="300"/>
      <point x="556" y="333"/>
      <point x="556" y="366" type="curve" smooth="yes"/>
      <point x="556" y="489"/>
      <point x="511" y="560"/>
      <point x="372" y="560" type="curve" smooth="yes"/>
      <point x="160" y="560" type="line"/>
    </contour>
    <contour>
      <point x="362" y="650" type="move" name="top"/>
    </contour>
    <contour>
      <point x="225" y="-150" type="move" name="bottom"/>
    </contour>
  </outline>
</glyph>
<glyph name="M.salt.smcp" format="1">
  <advance width="698"/>
  <outline>
    <contour>
      <point x="60" y="0" type="line"/>
      <point x="114" y="0" type="line"/>
      <point x="226" y="480" type="line" smooth="yes"/>
      <point x="232" y="506"/>
      <point x="247" y="515"/>
      <point x="262" y="515" type="curve" smooth="yes"/>
      <point x="275" y="515"/>
      <point x="285" y="506"/>
      <point x="287" y="485" type="curve" smooth="yes"/>
      <point x="323" y="198" type="line" smooth="yes"/>
      <point x="326" y="165"/>
      <point x="347" y="147"/>
      <point x="378" y="147" type="curve" smooth="yes"/>
      <point x="408" y="147"/>
      <point x="436" y="162"/>
      <point x="450" y="198" type="curve" smooth="yes"/>
      <point x="570" y="487" type="line" smooth="yes"/>
      <point x="577" y="506"/>
      <point x="589" y="515"/>
      <point x="599" y="515" type="curve" smooth="yes"/>
      <point x="609" y="515"/>
      <point x="616" y="510"/>
      <point x="616" y="487" type="curve" smooth="yes"/>
      <point x="616" y="485"/>
      <point x="616" y="482"/>
      <point x="616" y="476" type="curve" smooth="yes"/>
      <point x="579" y="0" type="line"/>
      <point x="633" y="0" type="line"/>
      <point x="671" y="486" type="line" smooth="yes"/>
      <point x="671" y="490"/>
      <point x="671" y="495"/>
      <point x="671" y="500" type="curve" smooth="yes"/>
      <point x="671" y="553"/>
      <point x="646" y="567"/>
      <point x="611" y="567" type="curve" smooth="yes"/>
      <point x="576" y="567"/>
      <point x="544" y="551"/>
      <point x="529" y="502" type="curve" smooth="yes"/>
      <point x="414" y="224" type="line" smooth="yes"/>
      <point x="408" y="208"/>
      <point x="398" y="202"/>
      <point x="387" y="202" type="curve" smooth="yes"/>
      <point x="376" y="202"/>
      <point x="369" y="208"/>
      <point x="367" y="225" type="curve" smooth="yes"/>
      <point x="332" y="501" type="line" smooth="yes"/>
      <point x="329" y="544"/>
      <point x="307" y="568"/>
      <point x="266" y="568" type="curve" smooth="yes"/>
      <point x="224" y="568"/>
      <point x="188" y="547"/>
      <point x="173" y="484" type="curve" smooth="yes"/>
    </contour>
    <contour>
      <point x="444" y="650" type="move" name="top"/>
    </contour>
    <contour>
      <point x="325" y="-150" type="move" name="bottom"/>
    </contour>
  </outline>
</glyph>
<glyph name="N.salt" format="1">
  <advance width="718"/>
  <outline>
    <contour>
      <point x="97" y="0" type="line"/>
      <point x="155" y="0" type="line"/>
      <point x="255" y="628" type="line" smooth="yes"/>
      <point x="262" y="672"/>
      <point x="284" y="685"/>
      <point x="312" y="685" type="curve" smooth="yes"/>
      <point x="334" y="685"/>
      <point x="346" y="670"/>
      <point x="350" y="647" type="curve" smooth="yes"/>
      <point x="461" y="71" type="line" smooth="yes"/>
      <point x="471" y="19"/>
      <point x="498" y="-6"/>
      <point x="550" y="-6" type="curve" smooth="yes"/>
      <point x="607" y="-6"/>
      <point x="655" y="19"/>
      <point x="669" y="98" type="curve" smooth="yes"/>
      <point x="769" y="734" type="line"/>
      <point x="711" y="734" type="line"/>
      <point x="611" y="102" type="line" smooth="yes"/>
      <point x="605" y="61"/>
      <point x="581" y="50"/>
      <point x="557" y="50" type="curve" smooth="yes"/>
      <point x="531" y="50"/>
      <point x="518" y="62"/>
      <point x="513" y="87" type="curve" smooth="yes"/>
      <point x="404" y="661" type="line" smooth="yes"/>
      <point x="394" y="711"/>
      <point x="370" y="741"/>
      <point x="316" y="741" type="curve" smooth="yes"/>
      <point x="260" y="741"/>
      <point x="211" y="716"/>
      <point x="198" y="633" type="curve" smooth="yes"/>
    </contour>
    <contour>
      <point x="504" y="810" type="move" name="top"/>
    </contour>
    <contour>
      <point x="348" y="-150" type="move" name="bottom"/>
    </contour>
  </outline>
</glyph>
<glyph name="N.salt.smcp" format="1">
  <advance width="611"/>
  <outline>
    <contour>
      <point x="88" y="0" type="line"/>
      <point x="144" y="0" type="line"/>
      <point x="219" y="469" type="line" smooth="yes"/>
      <point x="223" y="503"/>
      <point x="240" y="512"/>
      <point x="263" y="512" type="curve" smooth="yes"/>
      <point x="280" y="512"/>
      <point x="290" y="502"/>
      <point x="293" y="483" type="curve" smooth="yes"/>
      <point x="381" y="60" type="line" smooth="yes"/>
      <point x="389" y="16"/>
      <point x="413" y="-5"/>
      <point x="458" y="-5" type="curve" smooth="yes"/>
      <point x="508" y="-5"/>
      <point x="550" y="15"/>
      <point x="560" y="80" type="curve" smooth="yes"/>
      <point x="636" y="560" type="line"/>
      <point x="580" y="560" type="line"/>
      <point x="505" y="85" type="line" smooth="yes"/>
      <point x="500" y="55"/>
      <point x="482" y="47"/>
      <point x="464" y="47" type="curve" smooth="yes"/>
      <point x="442" y="47"/>
      <point x="432" y="56"/>
      <point x="429" y="75" type="curve" smooth="yes"/>
      <point x="342" y="499" type="line" smooth="yes"/>
      <point x="334" y="540"/>
      <point x="313" y="565"/>
      <point x="265" y="565" type="curve" smooth="yes"/>
      <point x="216" y="565"/>
      <point x="174" y="544"/>
      <point x="164" y="478" type="curve" smooth="yes"/>
    </contour>
    <contour>
      <point x="427" y="648" type="move" name="top"/>
    </contour>
    <contour>
      <point x="296" y="-150" type="move" name="bottom"/>
    </contour>
  </outline>
</glyph>
<glyph name="Schwa.smcp" format="1">
  <advance width="512"/>
  <note>
    GF Latin Plus glyph
  </note>
  <outline>
    <contour>
      <point x="252" y="-5" type="curve" smooth="yes"/>
      <point x="372" y="-5"/>
      <point x="460" y="51"/>
      <point x="497" y="282" type="curve" smooth="yes"/>
      <point x="504" y="329"/>
      <point x="508" y="369"/>
      <point x="507" y="401" type="curve" smooth="yes"/>
      <point x="506" y="534"/>
      <point x="439" y="565"/>
      <point x="318" y="565" type="curve" smooth="yes"/>
      <point x="257" y="565"/>
      <point x="207" y="555"/>
      <point x="170" y="547" type="curve"/>
      <point x="164" y="507" type="line"/>
      <point x="188" y="510"/>
      <point x="228" y="517"/>
      <point x="295" y="517" type="curve" smooth="yes"/>
      <point x="403" y="517"/>
      <point x="451" y="493"/>
      <point x="452" y="399" type="curve" smooth="yes"/>
      <point x="452" y="371"/>
      <point x="448" y="336"/>
      <point x="442" y="293" type="curve"/>
      <point x="108" y="293" type="line"/>
      <point x="102" y="262" type="line" smooth="yes"/>
      <point x="95" y="217"/>
      <point x="93" y="183"/>
      <point x="93" y="155" type="curve" smooth="yes"/>
      <point x="94" y="40"/>
      <point x="147" y="-5"/>
    </contour>
    <contour>
      <point x="257" y="43" type="curve" smooth="yes"/>
      <point x="180" y="43"/>
      <point x="149" y="77"/>
      <point x="148" y="157" type="curve" smooth="yes"/>
      <point x="148" y="183"/>
      <point x="151" y="213"/>
      <point x="156" y="250" type="curve"/>
      <point x="433" y="250" type="line"/>
      <point x="400" y="86"/>
      <point x="347" y="43"/>
    </contour>
  </outline>
</glyph>
<glyph name="V.smcp" format="1">
  <advance width="568"/>
  <note>
    GF Latin Plus glyph
  </note>
  <outline>
    <contour>
      <point x="130" y="560" type="line"/>
      <point x="244" y="0" type="line"/>
      <point x="316" y="0" type="line"/>
      <point x="615" y="560" type="line"/>
      <point x="558" y="560" type="line"/>
      <point x="289" y="58" type="line"/>
      <point x="188" y="560" type="line"/>
    </contour>
  </outline>
</glyph>
<glyph name="a.salt" format="1">
  <advance width="562"/>
  <outline>
    <contour>
      <point x="153" y="264" type="curve" smooth="yes"/>
      <point x="179" y="422"/>
      <point x="226" y="490"/>
      <point x="365" y="490" type="curve" smooth="yes"/>
      <point x="431" y="490"/>
      <point x="482" y="471"/>
      <point x="504" y="457" type="curve"/>
      <point x="444" y="78" type="line"/>
      <point x="393" y="58"/>
      <point x="335" y="43"/>
      <point x="267" y="43" type="curve" smooth="yes"/>
      <point x="193" y="43"/>
      <point x="145" y="86"/>
      <point x="145" y="181" type="curve" smooth="yes"/>
      <point x="145" y="203"/>
      <point x="148" y="228"/>
    </contour>
    <contour>
      <point x="97" y="274" type="curve" smooth="yes"/>
      <point x="92" y="245"/>
      <point x="87" y="206"/>
      <point x="87" y="173" type="curve" smooth="yes"/>
      <point x="87" y="47"/>
      <point x="158" y="-6"/>
      <point x="260" y="-6" type="curve" smooth="yes"/>
      <point x="339" y="-6"/>
      <point x="443" y="19"/>
      <point x="497" y="45" type="curve"/>
      <point x="566" y="481" type="line"/>
      <point x="520" y="522"/>
      <point x="435" y="539"/>
      <point x="369" y="539" type="curve" smooth="yes"/>
      <point x="200" y="539"/>
      <point x="125" y="456"/>
    </contour>
    <contour>
      <point x="382" y="650" type="move" name="top"/>
    </contour>
    <contour>
      <point x="326" y="0" type="move" name="ogonek"/>
    </contour>
    <contour>
      <point x="255" y="-150" type="move" name="bottom"/>
    </contour>
  </outline>
</glyph>
<glyph name="at.smcp" format="1">
  <advance width="760"/>
  <note>
    GF Latin Plus glyph
  </note>
  <outline>
    <contour>
      <point x="424" y="376" type="curve" smooth="yes"/>
      <point x="464" y="376"/>
      <point x="497" y="370"/>
      <point x="540" y="348" type="curve"/>
      <point x="501" y="83" type="line"/>
      <point x="452" y="47"/>
      <point x="398" y="41"/>
      <point x="351" y="41" type="curve" smooth="yes"/>
      <point x="305" y="41"/>
      <point x="260" y="61"/>
      <point x="259" y="145" type="curve" smooth="yes"/>
      <point x="258" y="288"/>
      <point x="333" y="376"/>
    </contour>
    <contour>
      <point x="60" y="17" type="line" smooth="yes"/>
      <point x="59" y="6"/>
      <point x="58" y="-5"/>
      <point x="58" y="-15" type="curve" smooth="yes"/>
      <point x="59" y="-86"/>
      <point x="104" y="-140"/>
      <point x="197" y="-140" type="curve" smooth="yes"/>
      <point x="273" y="-140" type="line" smooth="yes"/>
      <point x="375" y="-140"/>
      <point x="468" y="-136"/>
      <point x="508" y="-129" type="curve"/>
      <point x="513" y="-100" type="line"/>
      <point x="202" y="-100" type="line" smooth="yes"/>
      <point x="142" y="-100"/>
      <point x="105" y="-67"/>
      <point x="104" y="-13" type="curve" smooth="yes"/>
      <point x="104" y="-5"/>
      <point x="105" y="6"/>
      <point x="106" y="17" type="curve" smooth="yes"/>
      <point x="166" y="389" type="line" smooth="yes"/>
      <point x="175" y="447"/>
      <point x="206" y="500"/>
      <point x="298" y="500" type="curve" smooth="yes"/>
      <point x="605" y="500" type="line" smooth="yes"/>
      <point x="660" y="500"/>
      <point x="699" y="481"/>
      <point x="699" y="421" type="curve" smooth="yes"/>
      <point x="699" y="411"/>
      <point x="698" y="401"/>
      <point x="696" y="389" type="curve" smooth="yes"/>
      <point x="659" y="139" type="line" smooth="yes"/>
      <point x="645" y="50"/>
      <point x="578" y="40"/>
      <point x="541" y="40" type="curve"/>
      <point x="589" y="366" type="line"/>
      <point x="550" y="399"/>
      <point x="493" y="416"/>
      <point x="426" y="416" type="curve" smooth="yes"/>
      <point x="308" y="416"/>
      <point x="212" y="313"/>
      <point x="213" y="137" type="curve" smooth="yes"/>
      <point x="214" y="32"/>
      <point x="270" y="-3"/>
      <point x="341" y="-3" type="curve" smooth="yes"/>
      <point x="394" y="-3"/>
      <point x="473" y="23"/>
      <point x="497" y="50" type="curve"/>
      <point x="504" y="2" type="line"/>
      <point x="546" y="2" type="line" smooth="yes"/>
      <point x="658" y="2"/>
      <point x="697" y="87"/>
      <point x="705" y="133" type="curve" smooth="yes"/>
      <point x="742" y="385" type="line" smooth="yes"/>
      <point x="744" y="399"/>
      <point x="745" y="412"/>
      <point x="745" y="425" type="curve" smooth="yes"/>
      <point x="744" y="496"/>
      <point x="702" y="540"/>
      <point x="615" y="540" type="curve" smooth="yes"/>
      <point x="305" y="540" type="line" smooth="yes"/>
      <point x="189" y="540"/>
      <point x="136" y="486"/>
      <point x="121" y="397" type="curve" smooth="yes"/>
    </contour>
  </outline>
</glyph>
<glyph name="f_t" format="1">
  <advance width="746"/>
  <outline>
    <contour>
      <point x="104" y="483" type="line"/>
      <point x="188" y="483" type="line"/>
      <point x="112" y="0" type="line"/>
      <point x="170" y="0" type="line"/>
      <point x="246" y="483" type="line"/>
      <point x="592" y="483" type="line"/>
      <point x="600" y="533" type="line"/>
      <point x="254" y="533" type="line"/>
      <point x="266" y="605" type="line" smooth="yes"/>
      <point x="277" y="676"/>
      <point x="294" y="721"/>
      <point x="370" y="721" type="curve" smooth="yes"/>
      <point x="475" y="721" type="line"/>
      <point x="482" y="763" type="line"/>
      <point x="449" y="766"/>
      <point x="404" y="769"/>
      <point x="365" y="769" type="curve" smooth="yes"/>
      <point x="240" y="769"/>
      <point x="221" y="683"/>
      <point x="210" y="616" type="curve" smooth="yes"/>
      <point x="196" y="533" type="line"/>
      <point x="111" y="520" type="line"/>
    </contour>
    <component base="t" xOffset="368"/>
  </outline>
</glyph>
<glyph name="five.smcp" format="1">
  <advance width="536"/>
  <note>
    GF Latin Plus glyph
  </note>
  <outline>
    <contour>
      <point x="100" y="4" type="line"/>
      <point x="151" y="-1"/>
      <point x="219" y="-3"/>
      <point x="287" y="-3" type="curve" smooth="yes"/>
      <point x="394" y="-3"/>
      <point x="477" y="41"/>
      <point x="491" y="130" type="curve" smooth="yes"/>
      <point x="501" y="195" type="line" smooth="yes"/>
      <point x="505" y="220"/>
      <point x="506" y="232"/>
      <point x="506" y="241" type="curve" smooth="yes"/>
      <point x="505" y="301"/>
      <point x="463" y="343"/>
      <point x="380" y="343" type="curve" smooth="yes"/>
      <point x="309" y="343" type="line" smooth="yes"/>
      <point x="258" y="343"/>
      <point x="222" y="323"/>
      <point x="208" y="302" type="curve"/>
      <point x="252" y="512" type="line"/>
      <point x="532" y="512" type="line"/>
      <point x="540" y="560" type="line"/>
      <point x="206" y="560" type="line"/>
      <point x="138" y="231" type="line"/>
      <point x="191" y="231" type="line"/>
      <point x="206" y="277"/>
      <point x="239" y="298"/>
      <point x="291" y="298" type="curve" smooth="yes"/>
      <point x="356" y="298" type="line" smooth="yes"/>
      <point x="417" y="298"/>
      <point x="448" y="271"/>
      <point x="449" y="228" type="curve" smooth="yes"/>
      <point x="449" y="221"/>
      <point x="447" y="199"/>
      <point x="437" y="139" type="curve" smooth="yes"/>
      <point x="427" y="78"/>
      <point x="365" y="45"/>
      <point x="293" y="45" type="curve" smooth="yes"/>
      <point x="107" y="45" type="line"/>
    </contour>
  </outline>
</glyph>
<glyph name="florin.smcp" format="1">
  <advance width="516"/>
  <note>
    GF Latin Plus glyph
  </note>
  <outline>
    <contour>
      <point x="10" y="-147" type="line"/>
      <point x="25" y="-152"/>
      <point x="51" y="-156"/>
      <point x="77" y="-156" type="curve" smooth="yes"/>
      <point x="166" y="-156"/>
      <point x="218" y="-100"/>
      <point x="267" y="53" type="curve" smooth="yes"/>
      <point x="346" y="309" type="line"/>
      <point x="450" y="309" type="line"/>
      <point x="461" y="348" type="line"/>
      <point x="356" y="348" type="line"/>
      <point x="381" y="423" type="line" smooth="yes"/>
      <point x="415" y="529"/>
      <point x="442" y="567"/>
      <point x="506" y="567" type="curve" smooth="yes"/>
      <point x="560" y="567" type="line"/>
      <point x="571" y="600" type="line"/>
      <point x="561" y="603"/>
      <point x="540" y="609"/>
      <point x="498" y="609" type="curve" smooth="yes"/>
      <point x="407" y="609"/>
      <point x="368" y="557"/>
      <point x="326" y="426" type="curve" smooth="yes"/>
      <point x="301" y="349" type="line"/>
      <point x="224" y="349" type="line"/>
      <point x="212" y="309" type="line"/>
      <point x="290" y="309" type="line"/>
      <point x="212" y="62" type="line" smooth="yes"/>
      <point x="170" y="-73"/>
      <point x="134" y="-114"/>
      <point x="74" y="-114" type="curve" smooth="yes"/>
      <point x="22" y="-114" type="line"/>
    </contour>
  </outline>
</glyph>
<glyph name="four.oldstyle" format="1">
  <advance width="585"/>
  <outline>
    <contour>
      <point x="67" y="61" type="line"/>
      <point x="77" y="24" type="line"/>
      <point x="441" y="24" type="line"/>
      <point x="408" y="-185" type="line"/>
      <point x="466" y="-185" type="line"/>
      <point x="499" y="24" type="line"/>
      <point x="585" y="38" type="line"/>
      <point x="591" y="76" type="line"/>
      <point x="507" y="76" type="line"/>
      <point x="547" y="332" type="line"/>
      <point x="505" y="332" type="line"/>
      <point x="477" y="249" type="line"/>
      <point x="449" y="76" type="line"/>
      <point x="136" y="76" type="line"/>
      <point x="443" y="534" type="line"/>
      <point x="384" y="534" type="line"/>
    </contour>
  </outline>
</glyph>
<glyph name="hookabovecomb" format="1">
  <note>
    GF Latin Plus glyph
  </note>
  <outline>
    <contour>
      <point x="-323" y="742" type="line"/>
      <point x="-310" y="746"/>
      <point x="-296" y="748"/>
      <point x="-284" y="748" type="curve" smooth="yes"/>
      <point x="-253" y="748"/>
      <point x="-240" y="734"/>
      <point x="-240" y="711" type="curve" smooth="yes"/>
      <point x="-240" y="680"/>
      <point x="-256" y="650"/>
      <point x="-312" y="634" type="curve"/>
      <point x="-317" y="606" type="line"/>
      <point x="-236" y="628"/>
      <point x="-207" y="671"/>
      <point x="-207" y="715" type="curve" smooth="yes"/>
      <point x="-207" y="752"/>
      <point x="-227" y="775"/>
      <point x="-273" y="775" type="curve" smooth="yes"/>
      <point x="-288" y="775"/>
      <point x="-303" y="773"/>
      <point x="-319" y="768" type="curve"/>
    </contour>
    <contour>
      <point x="-294" y="650" type="move" name="_top"/>
    </contour>
  </outline>
</glyph>
<glyph name="k.superior" format="1">
  <advance width="389"/>
  <note>
    GF Latin Plus glyph
  </note>
  <outline>
    <contour>
      <point x="97" y="280" type="line"/>
      <point x="147" y="280" type="line"/>
      <point x="178" y="472" type="line"/>
      <point x="196" y="472"/>
      <point x="228" y="475"/>
      <point x="251" y="481" type="curve"/>
      <point x="361" y="280" type="line"/>
      <point x="414" y="280" type="line"/>
      <point x="294" y="497" type="line"/>
      <point x="348" y="519"/>
      <point x="403" y="567"/>
      <point x="434" y="672" type="curve"/>
      <point x="384" y="672" type="line"/>
      <point x="350" y="558"/>
      <point x="277" y="516"/>
      <point x="183" y="512" type="curve"/>
      <point x="236" y="841" type="line"/>
      <point x="187" y="841" type="line"/>
    </contour>
    <contour>
      <point x="225" y="169" type="move" name="bottom"/>
    </contour>
  </outline>
</glyph>
<glyph name="o.superior" format="1">
  <advance width="424"/>
  <note>
    GF Latin Plus glyph
  </note>
  <outline>
    <contour>
      <point x="164" y="473" type="curve" smooth="yes"/>
      <point x="185" y="605"/>
      <point x="221" y="635"/>
      <point x="310" y="635" type="curve" smooth="yes"/>
      <point x="385" y="635"/>
      <point x="413" y="609"/>
      <point x="413" y="540" type="curve" smooth="yes"/>
      <point x="413" y="520"/>
      <point x="412" y="498"/>
      <point x="408" y="470" type="curve" smooth="yes"/>
      <point x="387" y="343"/>
      <point x="345" y="318"/>
      <point x="262" y="318" type="curve" smooth="yes"/>
      <point x="201" y="318"/>
      <point x="159" y="335"/>
      <point x="159" y="410" type="curve" smooth="yes"/>
      <point x="159" y="427"/>
      <point x="161" y="446"/>
    </contour>
    <contour>
      <point x="115" y="479" type="curve" smooth="yes"/>
      <point x="112" y="454"/>
      <point x="109" y="431"/>
      <point x="109" y="408" type="curve" smooth="yes"/>
      <point x="110" y="311"/>
      <point x="167" y="276"/>
      <point x="255" y="276" type="curve" smooth="yes"/>
      <point x="379" y="276"/>
      <point x="434" y="318"/>
      <point x="457" y="462" type="curve" smooth="yes"/>
      <point x="461" y="490"/>
      <point x="464" y="516"/>
      <point x="464" y="539" type="curve" smooth="yes"/>
      <point x="464" y="630"/>
      <point x="426" y="676"/>
      <point x="319" y="676" type="curve" smooth="yes"/>
      <point x="195" y="676"/>
      <point x="140" y="636"/>
    </contour>
    <contour>
      <point x="325" y="757" type="move" name="top"/>
    </contour>
    <contour>
      <point x="308" y="280" type="move" name="ogonek"/>
    </contour>
    <contour>
      <point x="233" y="169" type="move" name="bottom"/>
    </contour>
  </outline>
</glyph>
<glyph name="ringhalfleft" format="1">
  <advance width="196"/>
  <outline>
    <contour>
      <point x="254" y="617" type="line"/>
      <point x="190" y="617"/>
      <point x="159" y="636"/>
      <point x="159" y="685" type="curve" smooth="yes"/>
      <point x="159" y="739"/>
      <point x="195" y="778"/>
      <point x="280" y="778" type="curve"/>
      <point x="284" y="807" type="line"/>
      <point x="174" y="807"/>
      <point x="120" y="750"/>
      <point x="120" y="681" type="curve" smooth="yes"/>
      <point x="120" y="614"/>
      <point x="166" y="588"/>
      <point x="249" y="588" type="curve"/>
    </contour>
  </outline>
</glyph>
<glyph name="s.superior" format="1">
  <advance width="379"/>
  <note>
    GF Latin Plus glyph
  </note>
  <outline>
    <contour>
      <point x="90" y="285" type="line"/>
      <point x="119" y="279"/>
      <point x="206" y="276"/>
      <point x="250" y="276" type="curve" smooth="yes"/>
      <point x="332" y="276"/>
      <point x="387" y="299"/>
      <point x="397" y="365" type="curve" smooth="yes"/>
      <point x="403" y="400" type="line" smooth="yes"/>
      <point x="404" y="408"/>
      <point x="404" y="415"/>
      <point x="404" y="422" type="curve" smooth="yes"/>
      <point x="404" y="470"/>
      <point x="366" y="496"/>
      <point x="312" y="496" type="curve" smooth="yes"/>
      <point x="233" y="496" type="line" smooth="yes"/>
      <point x="188" y="496"/>
      <point x="170" y="505"/>
      <point x="170" y="528" type="curve" smooth="yes"/>
      <point x="170" y="536"/>
      <point x="171" y="550"/>
      <point x="177" y="579" type="curve" smooth="yes"/>
      <point x="185" y="619"/>
      <point x="206" y="638"/>
      <point x="262" y="638" type="curve" smooth="yes"/>
      <point x="415" y="638" type="line"/>
      <point x="420" y="667" type="line"/>
      <point x="384" y="672"/>
      <point x="310" y="676"/>
      <point x="271" y="676" type="curve" smooth="yes"/>
      <point x="177" y="676"/>
      <point x="142" y="638"/>
      <point x="132" y="581" type="curve" smooth="yes"/>
      <point x="126" y="549" type="line" smooth="yes"/>
      <point x="124" y="538"/>
      <point x="124" y="528"/>
      <point x="124" y="518" type="curve" smooth="yes"/>
      <point x="124" y="472"/>
      <point x="159" y="453"/>
      <point x="225" y="453" type="curve" smooth="yes"/>
      <point x="301" y="453" type="line" smooth="yes"/>
      <point x="340" y="453"/>
      <point x="357" y="440"/>
      <point x="357" y="410" type="curve" smooth="yes"/>
      <point x="357" y="405"/>
      <point x="356" y="396"/>
      <point x="352" y="370" type="curve" smooth="yes"/>
      <point x="345" y="328"/>
      <point x="311" y="314"/>
      <point x="260" y="314" type="curve" smooth="yes"/>
      <point x="95" y="314" type="line"/>
    </contour>
    <contour>
      <point x="306" y="757" type="move" name="top"/>
    </contour>
    <contour>
      <point x="213" y="169" type="move" name="bottom"/>
    </contour>
  </outline>
</glyph>
<glyph name="strokeshortcomb" format="1">
  <outline>
    <contour>
      <point x="-306" y="293" type="line"/>
      <point x="-36" y="293" type="line"/>
      <point x="-32" y="323" type="line"/>
      <point x="-302" y="323" type="line"/>
    </contour>
  </outline>
</glyph>
<glyph name="w.superior" format="1">
  <advance width="612"/>
  <note>
    GF Latin Plus glyph
  </note>
  <outline>
    <contour>
      <point x="115" y="672" type="line"/>
      <point x="194" y="280" type="line"/>
      <point x="247" y="280" type="line"/>
      <point x="385" y="595" type="line"/>
      <point x="444" y="280" type="line"/>
      <point x="497" y="280" type="line"/>
      <point x="642" y="574" type="line" smooth="yes"/>
      <point x="657" y="604"/>
      <point x="670" y="645"/>
      <point x="670" y="678" type="curve"/>
      <point x="624" y="678" type="line"/>
      <point x="621" y="651"/>
      <point x="610" y="614"/>
      <point x="602" y="596" type="curve" smooth="yes"/>
      <point x="477" y="329" type="line"/>
      <point x="414" y="672" type="line"/>
      <point x="377" y="672" type="line"/>
      <point x="231" y="330" type="line"/>
      <point x="166" y="672" type="line"/>
    </contour>
    <contour>
      <point x="411" y="757" type="move" name="top"/>
    </contour>
    <contour>
      <point x="318" y="169" type="move" name="bottom"/>
    </contour>
  </outline>
</glyph>
<glyph name="x.salt" format="1">
  <advance width="541"/>
  <outline>
    <contour>
      <point x="452" y="0" type="line"/>
      <point x="515" y="0" type="line"/>
      <point x="400" y="216" type="line" smooth="yes"/>
      <point x="391" y="233"/>
      <point x="388" y="248"/>
      <point x="388" y="261" type="curve" smooth="yes"/>
      <point x="388" y="289"/>
      <point x="396" y="311"/>
      <point x="429" y="346" type="curve" smooth="yes"/>
      <point x="600" y="533" type="line"/>
      <point x="536" y="533" type="line"/>
      <point x="390" y="378" type="line" smooth="yes"/>
      <point x="346" y="331"/>
      <point x="330" y="292"/>
      <point x="330" y="252" type="curve" smooth="yes"/>
      <point x="330" y="232"/>
      <point x="336" y="210"/>
      <point x="348" y="187" type="curve" smooth="yes"/>
    </contour>
    <contour>
      <point x="26" y="0" type="line"/>
      <point x="89" y="0" type="line"/>
      <point x="252" y="187" type="line" smooth="yes"/>
      <point x="285" y="225"/>
      <point x="296" y="263"/>
      <point x="296" y="299" type="curve" smooth="yes"/>
      <point x="296" y="323"/>
      <point x="289" y="349"/>
      <point x="270" y="378" type="curve" smooth="yes"/>
      <point x="174" y="533" type="line"/>
      <point x="110" y="533" type="line"/>
      <point x="222" y="346" type="line" smooth="yes"/>
      <point x="235" y="327"/>
      <point x="240" y="308"/>
      <point x="240" y="292" type="curve" smooth="yes"/>
      <point x="240" y="270"/>
      <point x="235" y="245"/>
      <point x="210" y="216" type="curve" smooth="yes"/>
    </contour>
    <contour>
      <point x="375" y="650" type="move" name="top"/>
    </contour>
    <contour>
      <point x="248" y="-150" type="move" name="bottom"/>
    </contour>
  </outline>
</glyph>
<glyph name="zero.oldstyle.zero" format="1">
  <advance width="609"/>
  <outline>
    <contour>
      <point x="531" y="493" type="line"/>
      <point x="147" y="48" type="line"/>
      <point x="187" y="48" type="line"/>
      <point x="570" y="493" type="line"/>
    </contour>
    <component base="zero.oldstyle"/>
  </outline>
</glyph>
